<svg xmlns="http://www.w3.org/2000/svg" viewBox="0 0 900 675" role="img" aria-labelledby="title desc">
  <title id="title">Custom knitwear placeholder</title>
  <desc id="desc">Abstract knit sweater with stitch pattern.</desc>
  <rect width="900" height="675" fill="#f7f2e8"/>
  <path d="M120 210l130-86 84 78h232l84-78 130 86-88 150-70-38v240H278V322l-70 38z" fill="#516f5a"/>
  <path d="M334 202c22 44 54 66 116 66s94-22 116-66" fill="none" stroke="#fbfaf6" stroke-width="18"/>
  <g stroke="#fbfaf6" stroke-opacity=".62" stroke-width="8">
    <path d="M354 308l40 40-40 40 40 40-40 40"/>
    <path d="M450 308l40 40-40 40 40 40-40 40"/>
    <path d="M546 308l40 40-40 40 40 40-40 40"/>
  </g>
</svg>
