<svg xmlns="http://www.w3.org/2000/svg" viewBox="0 0 1600 1000" role="img" aria-labelledby="title desc">
  <title id="title">Garment factory production placeholder</title>
  <desc id="desc">Abstract garment factory floor with fabric tables and apparel production details.</desc>
  <defs>
    <linearGradient id="bg" x1="0" x2="1" y1="0" y2="1">
      <stop offset="0" stop-color="#edf1ea"/>
      <stop offset="0.48" stop-color="#d7e3dc"/>
      <stop offset="1" stop-color="#b9cbbf"/>
    </linearGradient>
    <pattern id="grid" width="80" height="80" patternUnits="userSpaceOnUse">
      <path d="M80 0H0V80" fill="none" stroke="#ffffff" stroke-opacity=".38" stroke-width="2"/>
    </pattern>
  </defs>
  <rect width="1600" height="1000" fill="url(#bg)"/>
  <rect width="1600" height="1000" fill="url(#grid)"/>
  <path d="M0 715c265-95 529-121 792-78 310 50 527-10 808-126v489H0z" fill="#17201c" opacity=".14"/>
  <g transform="translate(190 195)">
    <rect x="0" y="260" width="1220" height="300" rx="20" fill="#fbfaf6" opacity=".88"/>
    <rect x="80" y="326" width="360" height="130" rx="14" fill="#2c7580" opacity=".78"/>
    <rect x="478" y="326" width="300" height="130" rx="14" fill="#b96f50" opacity=".72"/>
    <rect x="816" y="326" width="330" height="130" rx="14" fill="#516f5a" opacity=".76"/>
    <g fill="#17201c" opacity=".52">
      <rect x="105" y="480" width="80" height="120" rx="10"/>
      <rect x="612" y="480" width="80" height="120" rx="10"/>
      <rect x="1035" y="480" width="80" height="120" rx="10"/>
    </g>
    <g fill="none" stroke="#17201c" stroke-opacity=".55" stroke-width="12" stroke-linecap="round">
      <path d="M150 245v-92h160v92"/>
      <path d="M562 245v-92h160v92"/>
      <path d="M965 245v-92h160v92"/>
      <path d="M230 153c23-45 57-68 100-68"/>
      <path d="M642 153c23-45 57-68 100-68"/>
      <path d="M1045 153c23-45 57-68 100-68"/>
    </g>
  </g>
</svg>
